<svg xmlns="http://www.w3.org/2000/svg" xmlns:xlink="http://www.w3.org/1999/xlink" width="500" zoomAndPan="magnify" viewBox="0 0 375 374.999991" height="500" preserveAspectRatio="xMidYMid meet" version="1.0"><defs><clipPath id="a2b90e25f7"><path d="M 1 11.367188 L 373 11.367188 L 373 369 L 1 369 Z M 1 11.367188 " clip-rule="nonzero"/></clipPath></defs><g clip-path="url(#a2b90e25f7)"><path fill="#004aad" d="M 251.292969 11.722656 C 250.511719 11.730469 249.710938 11.769531 248.914062 11.832031 C 217.203125 17.304688 199.769531 50.835938 197.242188 80.402344 C 193.550781 107.234375 205.375 141.714844 234.835938 147.726562 C 239.105469 148.542969 243.546875 148.171875 247.722656 147.035156 C 283.195312 135.140625 299.070312 93.128906 293.945312 58.328125 C 292.453125 35.851562 275.511719 11.414062 251.292969 11.722656 Z M 116.859375 13.160156 C 97.140625 13.644531 81.78125 33.640625 78.660156 52.4375 C 72.074219 89.679688 89.011719 135.953125 127.8125 147.730469 C 131.445312 148.523438 135.203125 148.605469 138.875 148.035156 C 165.097656 143.664062 176.207031 114.265625 175.109375 90.53125 C 174.320312 59.222656 158.058594 23.019531 125.542969 14.214844 C 122.570312 13.425781 119.675781 13.09375 116.859375 13.164062 Z M 337.203125 118.933594 C 303.09375 120.976562 279.710938 155.007812 276.378906 186.785156 C 271.863281 209.703125 284.082031 240.359375 310.234375 242.1875 C 346.699219 241.738281 371.574219 202.773438 372.609375 169.25 C 374.914062 147.074219 361.851562 120.15625 337.203125 118.933594 Z M 38.664062 126.484375 C 24.15625 126.359375 9.882812 135.050781 5.140625 149.804688 C -7.511719 189.261719 17.894531 239.238281 59.6875 247.53125 C 77.128906 250.515625 92.453125 237.121094 96.78125 221.003906 C 105.945312 186.53125 87.121094 146.507812 55.261719 130.863281 C 50.070312 127.949219 44.34375 126.539062 38.664062 126.492188 Z M 191.570312 197.242188 C 163.125 197.300781 134.230469 211.738281 115.808594 233.226562 C 95.914062 258.273438 79.617188 287.421875 73.242188 319.03125 C 65.496094 341.785156 83.050781 367.96875 107.371094 368.128906 C 136.632812 368.941406 161.78125 348.847656 190.878906 347.355469 C 215.566406 343.589844 237.671875 356.429688 259.867188 364.835938 C 278.761719 372.917969 304.875 369.820312 314.523438 349.484375 C 322.109375 328.753906 310.941406 306.652344 301.6875 288.242188 C 282.816406 258.363281 262.597656 226.960938 231.652344 208.304688 C 219.25 200.617188 205.464844 197.210938 191.570312 197.242188 Z M 191.570312 197.242188 " fill-opacity="1" fill-rule="nonzero"/></g></svg>